<?xml version="1.0" encoding="utf-8"?>
<!-- Generator: Adobe Illustrator 23.0.0, SVG Export Plug-In . SVG Version: 6.00 Build 0)  -->
<svg version="1.1" id="Layer_1" xmlns="http://www.w3.org/2000/svg" xmlns:xlink="http://www.w3.org/1999/xlink" x="0px" y="0px"
	 viewBox="0 0 1000 1000" style="enable-background:new 0 0 1000 1000;" xml:space="preserve">
<style type="text/css">
	.st0{fill:#FFFFFF;}
</style>
<path d="M428.9,12.7C364.1,26,316.2,78.3,309.1,143.4c-1.1,10.7-1.7,12.1-5.4,12.1c-2.3,0-35.1,1.9-72.6,4.2l-68.4,4.2l-1,6.9
	c-2.3,15.7-68.8,772.6-67.9,773.3c0.8,0.8,615.4,43.9,646.9,45.2l10,0.6l41.6-54.1l41.4-54h36.2c32.4,0,36.2-0.4,36.2-3.3
	c0-2.7-25.3-218.9-74.6-635.7c-7.3-61.9-13.8-113.1-14.4-113.6c-0.6-0.6-5,0.4-10,2.1c-11.7,4-14.4,3.8-29.5-1
	c-11.1-3.6-15.3-3.8-39.3-2.9c-14.8,0.8-30.9,1.7-35.7,2.3l-8.6,1.1l-2.5-10.5c-7.5-33.5-34.5-66.1-69.2-83.7
	c-23.8-12.1-32.4-14-67.3-14.6c-25.7-0.4-33.9-1.3-43.3-4.4C488.1,9.7,453.8,7.7,428.9,12.7z M455,60.6
	c-20.9,20.9-34.5,48.5-37,74.8l-1.1,12.1l-11.7,1c-6.3,0.8-22.2,1.7-35.1,2.5c-27,1.5-25.9,2.5-20.7-17.1
	c10-38.1,44.9-70.2,89.5-81.8c7.7-1.9,17.3-3.6,21.3-3.6l7.3-0.2L455,60.6z M599.5,63.3c26.1,10,49.8,35.8,57.1,61.7l1.9,6.9
	l-11.7,1.3c-6.3,0.6-16.9,1.1-23.2,1.1h-11.9l-3.3-13.8c-4-17.6-14.2-38.7-25.1-53.1l-8.6-11.3l7.5,1.7
	C586.4,58.9,594.1,61.4,599.5,63.3z M531.4,70.2c13.8,9.8,25.5,23.6,32.4,38.1c4.8,10,10,27.4,8.6,28.9c-1,0.8-119.2,8.6-120,7.9
	c-1.7-1.7,4.4-25.1,9.4-35.5c7.5-15.7,25.5-33.9,41.8-42c6.7-3.4,13-6.1,14-6.1C518.6,61.6,524.9,65.4,531.4,70.2z M789.2,156.9
	c0.4,0.4,6.9,160.8,14.4,356.1L817,868.3l-31.2,40.8c-17.3,22.4-33,42.4-34.7,44.3c-3.4,3.5-3.4,2.7-2.7-19.2
	c0.4-12.5,3.3-181.3,6.3-375.3c3.3-194,6.3-365.7,6.9-381.6l1.2-28.9l12.7,3.6C782.5,154.2,788.6,156.3,789.2,156.9z"/>
<g>
	<g>
		<path class="st0" d="M264,706.7c-9.2,4.8-18.8,7.6-28.6,8.2c-9.8,0.6-18.4,0.7-25.8,0.3c-14.7-0.9-27-6.3-37-16.2
			c-9.9-9.8-13.8-25.3-11.8-46.4c1.9-19.6,8.1-33.4,18.6-41.4c10.5-8,23.6-13.2,39.1-15.5c2,0.1,4.5-0.2,7.4-0.8
			c2.9-0.6,6.2-1.1,9.9-1.5c18.2-2.3,27.8-8.1,28.6-17.5c0.6-7-2.2-11.7-8.4-14c-6.2-2.3-11.9-3.4-17.1-3.6
			c-5.7-0.1-10.8,0.7-15.4,2.4c-4.6,1.8-8.1,5.2-10.6,10.2l-40-1c2.9-14.2,9.6-25.8,19.9-34.7c11.7-10.4,27.5-15.4,47.7-15.1
			c22.7,0.3,39.6,5,50.4,14c11.3,9.6,16.3,22.9,14.9,40l-5.3,65.2c-1.6,19.3-5.9,34.3-12.9,44.9C280.7,694.8,272.8,702.3,264,706.7z
			 M261.5,617.7c-6.1,3.1-14.4,5.9-24.9,8.3l-14.4,3c-7.5,2.1-13.1,4.9-16.6,8.6c-3.3,5.1-5.2,10.2-5.7,15.4
			c-0.7,7.1,0.6,12.9,3.9,17.3c3.3,4,8.4,6.1,15.4,6.5c11.5,0.6,20.9-2.8,28.1-10.1c7.3-7.3,11.5-17.7,12.6-31.1L261.5,617.7z"/>
		<path class="st0" d="M331,470.8l22.7,0.1c5.9,0,10.8,2.3,14.8,6.7c3.9,4.5,5.7,10,5.2,16.6l-16.7,226l-45.4-2.7L331,470.8z"/>
		<path class="st0" d="M453.2,725.8c-15.1,0.1-31.2-1.1-48.3-3.6c-17-2.5-24.7-15.2-23-38.1l15.2-213.3l23.4,0.1
			c5.7,0,10.5,2.4,14.6,7.2c4.1,4.8,5.9,10.6,5.4,17.3l-2.2,32.5l27.3,0.4l-0.6,10.2c-0.5,7.3-3.1,13.3-7.9,17.8
			c-4.8,4.5-10.3,6.7-16.5,6.6l-4.7-0.1l-7.3,109.4c-0.6,8.5,3.6,13,12.7,13.4l14.3,0.7L453.2,725.8z"/>
		<path class="st0" d="M478.3,698.8l15.9,0.8l-1.7,28.5l-25.7-1.5l1.1-17.5C468.3,701.9,471.8,698.5,478.3,698.8z"/>
		<path class="st0" d="M562.5,728.3c-5.4,2.7-11.1,4.2-16.9,4.5c-5.9,0.3-11,0.4-15.5,0.1c-8.9-0.5-16.5-3.6-22.8-9.2
			c-6.3-5.6-9.1-14.4-8.4-26.5c0.7-11.2,4.1-19,10.3-23.5c6.2-4.5,14-7.4,23.4-8.5c1.2,0.1,2.7-0.1,4.5-0.4c1.7-0.3,3.7-0.6,6-0.7
			c10.9-1.1,16.6-4.4,16.9-9.7c0.2-4-1.6-6.7-5.3-8c-3.8-1.4-7.2-2.1-10.4-2.2c-3.4-0.1-6.5,0.3-9.3,1.2c-2.8,1-4.8,2.9-6.2,5.7
			l-24.4-1c1.4-8.1,5.2-14.7,11.3-19.8c6.9-5.8,16.4-8.5,28.7-8.1c13.8,0.5,24,3.4,30.7,8.7c7,5.6,10.2,13.3,9.7,22.9l-1.8,36.8
			c-0.5,10.9-2.8,19.3-6.7,25.2C572.2,721.7,567.7,725.9,562.5,728.3z M559.1,678.1c-3.6,1.7-8.5,3.2-14.8,4.6l-8.6,1.6
			c-4.5,1.1-7.8,2.7-9.9,4.8c-1.9,2.9-2.9,5.8-3.1,8.7c-0.2,4,0.7,7.3,2.8,9.8c2.1,2.3,5.2,3.5,9.4,3.8c6.9,0.4,12.5-1.5,16.7-5.6
			c4.2-4.1,6.5-10,6.9-17.5L559.1,678.1z"/>
		<path class="st0" d="M664.5,570.2l13.1,0.3c3.6,0.1,6.7,1.6,9.1,4.5c2.5,2.9,3.7,6.1,3.5,9.6l-4,106.9
			c-0.7,19.7-6.6,32.8-17.6,39.1c-11,6.3-22.7,9.1-35.1,8.4c-6.7-0.4-13.2-2-19.5-4.7c-6.3-2.7-11.2-6.8-14.8-12.2
			c-6.9-10.5-9.9-24.5-9-41.8c0.8-17,5.1-30.5,12.9-40.4c8.1-10.2,18-15.1,30-14.7c6.4,0.2,11.9,1.8,16.7,4.7
			c5,3.4,8.9,7.8,11.8,13.1L664.5,570.2z M616,680.3c-0.5,10.9,1,19.3,4.6,25.3c3.6,6,9,9.1,16.2,9.5c7,0.4,12.5-2.2,16.7-7.8
			c3.9-5.6,6-13.9,6.5-24.9c0.4-9.9-1.2-17.8-4.9-23.7c-3.9-5.6-9.3-8.6-16.2-8.9c-6.7-0.3-12,2.4-16.1,7.9
			C618.7,663,616.5,670.5,616,680.3z"/>
	</g>
</g>
</svg>
